<?xml version="1.0" encoding="UTF-8"?>
<svg id="Layer_2" data-name="Layer 2" xmlns="http://www.w3.org/2000/svg" xmlns:xlink="http://www.w3.org/1999/xlink" viewBox="0 0 270.17 77.73">
  <defs>
    <style>
      .cls-1 {
        fill: #169a95;
      }

      .cls-2 {
        fill: url(#radial-gradient);
      }

      .cls-3 {
        fill: #002d41;
      }
    </style>
    <radialGradient id="radial-gradient" cx="29.42" cy="29.68" fx="29.42" fy="29.68" r="29.48" gradientUnits="userSpaceOnUse">
      <stop offset=".33" stop-color="#033547"/>
      <stop offset=".42" stop-color="#064755"/>
      <stop offset=".62" stop-color="#0f7679"/>
      <stop offset=".76" stop-color="#169a95"/>
      <stop offset=".96" stop-color="#84d1d9"/>
    </radialGradient>
  </defs>
  <g id="Layer_1-2" data-name="Layer 1">
    <g>
      <path class="cls-1" d="M63.47,1.95h10.53l18.3,44.69h.67L111.28,1.95h10.53v57.49h-8.25V17.83h-.53l-16.95,41.51h-6.85l-16.95-41.54h-.53v41.63h-8.25V1.95Z"/>
      <path class="cls-1" d="M148.31,2c10.11,0,17.52,5.09,17.52,15.67,0,6.02-2.55,9.96-6.48,11.89,5.02,1.62,8.95,6.25,8.95,13.81,0,10.96-7.72,16.36-18.14,16.36h-24.54V2h22.69ZM134.72,26.24h13.81c4.71,0,7.95-2.24,7.95-7.95s-3.78-8.18-9.26-8.18h-12.5v16.13ZM134.72,51.55h14.36c5.48,0,9.8-2.47,9.8-8.64s-4.4-8.8-9.42-8.8h-14.74v17.44Z"/>
      <path class="cls-1" d="M212.3,39.97c0,12.5-8.88,20.53-20.61,20.53s-20.68-8.03-20.68-20.53,8.88-20.53,20.68-20.53,20.61,7.95,20.61,20.53ZM179.81,39.97c0,8.18,5.02,13.04,11.89,13.04s11.89-4.86,11.89-13.04-5.09-13.12-11.89-13.12-11.89,4.86-11.89,13.12Z"/>
      <path class="cls-1" d="M270.09,22.84l-9.57.85c-1.54-9.18-8.41-14.28-17.52-14.28-11.35,0-19.14,8.1-19.14,21.46s8.41,21.46,19.22,21.46c9.03,0,15.82-4.86,17.44-13.74l9.65.85c-2.24,13.12-13.04,21.07-26.78,21.07-16.52,0-28.87-10.96-28.87-29.64S226.71,1.23,243.31,1.23c13.74,0,24.85,8.18,26.78,21.61Z"/>
      <path class="cls-2" d="M27.48,43.22c-.79,0-1.44-.65-1.44-1.44s.64-1.44,1.44-1.44,1.44.65,1.44,1.44-.64,1.44-1.44,1.44M23.1,41.74c.79,0,1.44-.65,1.44-1.44s-.64-1.44-1.44-1.44-1.44.64-1.44,1.44.64,1.44,1.44,1.44M18.02,34.99c.79,0,1.44-.65,1.44-1.44s-.64-1.44-1.44-1.44-1.44.64-1.44,1.44.64,1.44,1.44,1.44M19.93,38.61c.79,0,1.44-.65,1.44-1.44s-.64-1.44-1.44-1.44-1.44.65-1.44,1.44.64,1.44,1.44,1.44M35.95,42.01c.79,0,1.44-.64,1.44-1.44s-.64-1.44-1.44-1.44-1.44.65-1.44,1.44.64,1.44,1.44,1.44M31.68,43.28c.79,0,1.44-.64,1.44-1.44s-.64-1.44-1.44-1.44-1.44.65-1.44,1.44.64,1.44,1.44,1.44M41.25,35.81c.79,0,1.44-.64,1.44-1.44s-.64-1.44-1.44-1.44-1.44.65-1.44,1.44.64,1.44,1.44,1.44M38.68,39.05c.79,0,1.44-.65,1.44-1.44s-.64-1.44-1.44-1.44-1.44.64-1.44,1.44.64,1.44,1.44,1.44M17.15,30.43c.79,0,1.44-.65,1.44-1.44s-.64-1.44-1.44-1.44-1.44.64-1.44,1.44.64,1.44,1.44,1.44M38.95,23.08c.79,0,1.44-.65,1.44-1.44s-.64-1.44-1.44-1.44-1.44.65-1.44,1.44.64,1.44,1.44,1.44M41.03,27.36c.79,0,1.44-.65,1.44-1.44s-.64-1.44-1.44-1.44-1.44.65-1.44,1.44.64,1.44,1.44,1.44M42.07,31.2c.79,0,1.44-.65,1.44-1.44s-.64-1.44-1.44-1.44-1.44.65-1.44,1.44.64,1.44,1.44,1.44M35.73,20.34c.79,0,1.44-.65,1.44-1.44s-.64-1.44-1.44-1.44-1.44.64-1.44,1.44.64,1.44,1.44,1.44M31.85,18.69c.79,0,1.44-.65,1.44-1.44s-.64-1.44-1.44-1.44-1.44.65-1.44,1.44.64,1.44,1.44,1.44M27.7,18.8c.79,0,1.44-.64,1.44-1.44s-.64-1.44-1.44-1.44-1.44.64-1.44,1.44.64,1.44,1.44,1.44M23.43,20.06c.79,0,1.44-.65,1.44-1.44s-.64-1.44-1.44-1.44-1.44.65-1.44,1.44.64,1.44,1.44,1.44M20.32,22.59c.79,0,1.44-.64,1.44-1.44s-.64-1.44-1.44-1.44-1.44.64-1.44,1.44.64,1.44,1.44,1.44M18.18,26.54c.79,0,1.44-.64,1.44-1.44s-.64-1.44-1.44-1.44-1.44.65-1.44,1.44.64,1.44,1.44,1.44M23.76,45.8c.79,0,1.44-.65,1.44-1.44s-.64-1.44-1.44-1.44-1.44.65-1.44,1.44.64,1.44,1.44,1.44M19.22,43.06c.79,0,1.44-.64,1.44-1.44s-.64-1.44-1.44-1.44-1.44.64-1.44,1.44.64,1.44,1.44,1.44M15.62,38.83c.79,0,1.44-.65,1.44-1.44s-.64-1.44-1.44-1.44-1.43.65-1.43,1.44.64,1.44,1.43,1.44M34.85,46.02c.79,0,1.44-.65,1.44-1.44s-.64-1.44-1.44-1.44-1.44.64-1.44,1.44.64,1.44,1.44,1.44M29.39,47.06c.79,0,1.44-.65,1.44-1.44s-.64-1.44-1.44-1.44-1.44.65-1.44,1.44.64,1.44,1.44,1.44M14.36,27.25c.79,0,1.44-.65,1.44-1.44s-.64-1.44-1.44-1.44-1.44.65-1.44,1.44.64,1.44,1.44,1.44M43.33,39.6c.79,0,1.44-.65,1.44-1.44s-.64-1.44-1.44-1.44-1.44.64-1.44,1.44.64,1.44,1.44,1.44M39.99,43.71c.79,0,1.44-.64,1.44-1.44s-.64-1.44-1.44-1.44-1.44.65-1.44,1.44.64,1.44,1.44,1.44M14.14,33.34c.79,0,1.44-.64,1.44-1.44s-.64-1.44-1.44-1.44-1.44.65-1.44,1.44.64,1.44,1.44,1.44M43.05,23.57c.79,0,1.44-.65,1.44-1.44s-.64-1.44-1.44-1.44-1.44.65-1.44,1.44.64,1.44,1.44,1.44M45.24,28.24c.79,0,1.44-.65,1.44-1.44s-.64-1.44-1.44-1.44-1.44.64-1.44,1.44.64,1.44,1.44,1.44M44.58,34.55c.79,0,1.44-.64,1.44-1.44s-.64-1.44-1.44-1.44-1.44.65-1.44,1.44.64,1.44,1.44,1.44M16.27,22.59c.79,0,1.44-.64,1.44-1.44s-.64-1.44-1.44-1.44-1.44.64-1.44,1.44.64,1.44,1.44,1.44M39.72,19.02c.79,0,1.44-.65,1.44-1.44s-.64-1.44-1.44-1.44-1.44.65-1.44,1.44.64,1.44,1.44,1.44M35.07,16.11c.79,0,1.44-.64,1.44-1.44s-.64-1.44-1.44-1.44-1.44.65-1.44,1.44.64,1.44,1.44,1.44M29.83,15.29c.79,0,1.44-.65,1.44-1.44s-.64-1.44-1.44-1.44-1.44.64-1.44,1.44.64,1.44,1.44,1.44M24.47,16.22c.79,0,1.44-.65,1.44-1.44s-.64-1.44-1.44-1.44-1.44.65-1.44,1.44.64,1.44,1.44,1.44M19.93,18.41c.79,0,1.44-.65,1.44-1.44s-.64-1.44-1.44-1.44-1.44.65-1.44,1.44.64,1.44,1.44,1.44M9.71,47.12c.79,0,1.44-.65,1.44-1.44s-.64-1.44-1.44-1.44-1.44.65-1.44,1.44.64,1.44,1.44,1.44M41.47,52.71c.79,0,1.44-.65,1.44-1.44s-.64-1.44-1.44-1.44-1.44.65-1.44,1.44.64,1.44,1.44,1.44M33.16,55.95c.79,0,1.44-.64,1.44-1.44s-.64-1.44-1.44-1.44-1.44.65-1.44,1.44.64,1.44,1.44,1.44M24.52,55.73c.79,0,1.44-.65,1.44-1.44s-.64-1.44-1.44-1.44-1.44.64-1.44,1.44.64,1.44,1.44,1.44M16.33,52.38c.79,0,1.44-.65,1.44-1.44s-.64-1.44-1.44-1.44-1.44.64-1.44,1.44.64,1.44,1.44,1.44M6.43,21.98c.79,0,1.44-.64,1.44-1.44s-.64-1.44-1.44-1.44-1.44.64-1.44,1.44.64,1.44,1.44,1.44M48.36,47.83c.79,0,1.44-.65,1.44-1.44s-.64-1.44-1.44-1.44-1.44.64-1.44,1.44.64,1.44,1.44,1.44M6.05,39.21c.79,0,1.44-.65,1.44-1.44s-.64-1.44-1.44-1.44-1.44.64-1.44,1.44.64,1.44,1.44,1.44M4.9,30.27c.79,0,1.44-.64,1.44-1.44s-.64-1.44-1.44-1.44-1.44.65-1.44,1.44.64,1.44,1.44,1.44M53,22.81c.79,0,1.44-.65,1.44-1.44s-.64-1.44-1.44-1.44-1.44.65-1.44,1.44.64,1.44,1.44,1.44M54.7,31.42c.79,0,1.44-.64,1.44-1.44s-.64-1.44-1.44-1.44-1.44.65-1.44,1.44.64,1.44,1.44,1.44M52.78,40.26c.79,0,1.44-.65,1.44-1.44s-.64-1.44-1.44-1.44-1.44.65-1.44,1.44.64,1.44,1.44,1.44M10.81,14.79c.79,0,1.44-.65,1.44-1.44s-.64-1.44-1.44-1.44-1.44.64-1.44,1.44.64,1.44,1.44,1.44M48.96,15.07c.79,0,1.44-.65,1.44-1.44s-.64-1.44-1.44-1.44-1.44.65-1.44,1.44.64,1.44,1.44,1.44M34.2,6.4c.79,0,1.44-.65,1.44-1.44s-.64-1.44-1.44-1.44-1.44.65-1.44,1.44.64,1.44,1.44,1.44M25.45,6.29c.79,0,1.44-.64,1.44-1.44s-.64-1.44-1.44-1.44-1.44.64-1.44,1.44.64,1.44,1.44,1.44M17.64,9.25c.79,0,1.44-.64,1.44-1.44s-.64-1.44-1.44-1.44-1.44.64-1.44,1.44.64,1.44,1.44,1.44M42.62,9.69c.79,0,1.44-.65,1.44-1.44s-.64-1.44-1.44-1.44-1.44.65-1.44,1.44.64,1.44,1.44,1.44M19.66,47.28c.79,0,1.44-.65,1.44-1.44s-.64-1.44-1.44-1.44-1.44.65-1.44,1.44.64,1.44,1.44,1.44M15.01,43.22c.79,0,1.44-.65,1.44-1.44s-.64-1.44-1.44-1.44-1.44.65-1.44,1.44.64,1.44,1.44,1.44M38.52,47.83c.79,0,1.44-.65,1.44-1.44s-.64-1.44-1.44-1.44-1.44.64-1.44,1.44.64,1.44,1.44,1.44M32.12,49.59c.79,0,1.44-.64,1.44-1.44s-.64-1.44-1.44-1.44-1.43.65-1.43,1.44.64,1.44,1.43,1.44M25.67,49.59c.79,0,1.44-.64,1.44-1.44s-.64-1.44-1.44-1.44-1.44.65-1.44,1.44.64,1.44,1.44,1.44M12.06,23.9c.79,0,1.44-.65,1.44-1.44s-.64-1.44-1.44-1.44-1.44.65-1.44,1.44.64,1.44,1.44,1.44M43.66,44.26c.79,0,1.44-.65,1.44-1.44s-.64-1.44-1.44-1.44-1.44.65-1.44,1.44.64,1.44,1.44,1.44M10.48,30.49c.79,0,1.44-.65,1.44-1.44s-.64-1.44-1.44-1.44-1.44.65-1.44,1.44.64,1.44,1.44,1.44M11.95,37.07c.79,0,1.44-.65,1.44-1.44s-.64-1.44-1.44-1.44-1.44.65-1.44,1.44.64,1.44,1.44,1.44M47.54,24.84c.79,0,1.44-.65,1.44-1.44s-.64-1.44-1.44-1.44-1.44.65-1.44,1.44.64,1.44,1.44,1.44M48.19,31.53c.79,0,1.44-.64,1.44-1.44s-.64-1.44-1.44-1.44-1.44.65-1.44,1.44.64,1.44,1.44,1.44M47.1,37.9c.79,0,1.44-.64,1.44-1.44s-.64-1.44-1.44-1.44-1.44.64-1.44,1.44.64,1.44,1.44,1.44M15.62,18.63c.79,0,1.44-.64,1.44-1.44s-.64-1.44-1.44-1.44-1.43.65-1.43,1.44.64,1.44,1.43,1.44M44.15,18.91c.79,0,1.44-.65,1.44-1.44s-.64-1.44-1.44-1.44-1.44.65-1.44,1.44.64,1.44,1.44,1.44M33.16,12.32c.79,0,1.44-.65,1.44-1.44s-.64-1.44-1.44-1.44-1.44.65-1.44,1.44.64,1.44,1.44,1.44M26.44,12.21c.79,0,1.44-.65,1.44-1.44s-.64-1.44-1.44-1.44-1.44.65-1.44,1.44.64,1.44,1.44,1.44M20.7,14.35c.79,0,1.44-.65,1.44-1.44s-.64-1.44-1.44-1.44-1.44.65-1.44,1.44.64,1.44,1.44,1.44M39.28,14.41c.79,0,1.44-.65,1.44-1.44s-.64-1.44-1.44-1.44-1.44.65-1.44,1.44.64,1.44,1.44,1.44M10.42,41.46c.79,0,1.44-.65,1.44-1.44s-.64-1.44-1.44-1.44-1.44.64-1.44,1.44.64,1.44,1.44,1.44M43.27,48.16c.79,0,1.44-.65,1.44-1.44s-.64-1.44-1.44-1.44-1.44.65-1.44,1.44.64,1.44,1.44,1.44M36.38,51.89c.79,0,1.44-.65,1.44-1.44s-.64-1.44-1.44-1.44-1.44.65-1.44,1.44.64,1.44,1.44,1.44M27.96,53.43c.79,0,1.44-.64,1.44-1.44s-.64-1.44-1.44-1.44-1.44.65-1.44,1.44.64,1.44,1.44,1.44M20.53,51.73c.79,0,1.44-.64,1.44-1.44s-.64-1.44-1.44-1.44-1.44.65-1.44,1.44.64,1.44,1.44,1.44M14.46,47.5c.79,0,1.44-.65,1.44-1.44s-.64-1.44-1.44-1.44-1.44.64-1.44,1.44.64,1.44,1.44,1.44M8.24,26.65c.79,0,1.44-.65,1.44-1.44s-.64-1.44-1.44-1.44-1.44.65-1.44,1.44.64,1.44,1.44,1.44M8.24,34.33c.79,0,1.44-.65,1.44-1.44s-.64-1.44-1.44-1.44-1.44.64-1.44,1.44.64,1.44,1.44,1.44M48.46,20.34c.79,0,1.44-.65,1.44-1.44s-.64-1.44-1.44-1.44-1.44.64-1.44,1.44.64,1.44,1.44,1.44M50.76,27.36c.79,0,1.44-.65,1.44-1.44s-.64-1.44-1.44-1.44-1.44.65-1.44,1.44.64,1.44,1.44,1.44M50.48,35.15c.79,0,1.44-.64,1.44-1.44s-.64-1.44-1.44-1.44-1.44.65-1.44,1.44.64,1.44,1.44,1.44M47.75,42.18c.79,0,1.44-.65,1.44-1.44s-.64-1.44-1.44-1.44-1.44.65-1.44,1.44.64,1.44,1.44,1.44M16.05,14.41c.79,0,1.44-.65,1.44-1.44s-.64-1.44-1.44-1.44-1.44.65-1.44,1.44.64,1.44,1.44,1.44M11.19,19.68c.79,0,1.44-.65,1.44-1.44s-.64-1.44-1.44-1.44-1.44.65-1.44,1.44.64,1.44,1.44,1.44M29.99,9.03c.79,0,1.44-.65,1.44-1.44s-.64-1.44-1.44-1.44-1.44.65-1.44,1.44.64,1.44,1.44,1.44M23.21,10.18c.79,0,1.44-.64,1.44-1.44s-.64-1.44-1.44-1.44-1.44.65-1.44,1.44.64,1.44,1.44,1.44M37.09,10.35c.79,0,1.44-.64,1.44-1.44s-.64-1.44-1.44-1.44-1.44.65-1.44,1.44.64,1.44,1.44,1.44M43.59,14.63c.79,0,1.44-.65,1.44-1.44s-.64-1.44-1.44-1.44-1.44.65-1.44,1.44.64,1.44,1.44,1.44M4.9,44.76c.79,0,1.44-.64,1.44-1.44s-.64-1.44-1.44-1.44-1.44.64-1.44,1.44.64,1.44,1.44,1.44M38.74,57.87c.79,0,1.44-.64,1.44-1.44s-.64-1.44-1.44-1.44-1.44.65-1.44,1.44.64,1.44,1.44,1.44M29.39,59.35c.79,0,1.44-.64,1.44-1.44s-.64-1.44-1.44-1.44-1.44.65-1.44,1.44.64,1.44,1.44,1.44M19.55,57.49c.79,0,1.44-.64,1.44-1.44s-.64-1.44-1.44-1.44-1.44.65-1.44,1.44.64,1.44,1.44,1.44M10.7,52.71c.79,0,1.44-.65,1.44-1.44s-.64-1.44-1.44-1.44-1.44.65-1.44,1.44.64,1.44,1.44,1.44M2.17,25.55c.79,0,1.44-.65,1.44-1.44s-.64-1.44-1.44-1.44-1.44.65-1.44,1.44.64,1.44,1.44,1.44M47.54,52.93c.79,0,1.44-.64,1.44-1.44s-.64-1.44-1.44-1.44-1.44.65-1.44,1.44.64,1.44,1.44,1.44M1.57,35.15c.79,0,1.44-.64,1.44-1.44s-.64-1.44-1.44-1.44-1.44.65-1.44,1.44.64,1.44,1.44,1.44M57.26,26.54c.79,0,1.44-.64,1.44-1.44s-.64-1.44-1.44-1.44-1.44.65-1.44,1.44.64,1.44,1.44,1.44M57.26,36.58c.79,0,1.44-.65,1.44-1.44s-.64-1.44-1.44-1.44-1.44.65-1.44,1.44.64,1.44,1.44,1.44M53.71,45.75c.79,0,1.44-.64,1.44-1.44s-.64-1.44-1.44-1.44-1.44.65-1.44,1.44.64,1.44,1.44,1.44M5.83,16.88c.79,0,1.44-.65,1.44-1.44s-.64-1.44-1.44-1.44-1.44.64-1.44,1.44.64,1.44,1.44,1.44M29.99,2.88c.79,0,1.44-.64,1.44-1.44s-.64-1.44-1.44-1.44-1.44.65-1.44,1.44.64,1.44,1.44,1.44M20.48,4.42c.79,0,1.44-.65,1.44-1.44s-.64-1.44-1.44-1.44-1.44.65-1.44,1.44.64,1.44,1.44,1.44M11.84,8.92c.79,0,1.44-.65,1.44-1.44s-.64-1.44-1.44-1.44-1.44.65-1.44,1.44.64,1.44,1.44,1.44M39.77,4.91c.79,0,1.44-.65,1.44-1.44s-.64-1.44-1.44-1.44-1.44.65-1.44,1.44.64,1.44,1.44,1.44M48.08,9.85c.79,0,1.44-.65,1.44-1.44s-.64-1.44-1.44-1.44-1.44.65-1.44,1.44.64,1.44,1.44,1.44M54.2,17.15c.79,0,1.44-.65,1.44-1.44s-.64-1.44-1.44-1.44-1.44.65-1.44,1.44.64,1.44,1.44,1.44"/>
      <g>
        <g>
          <g>
            <path class="cls-3" d="M245.51,70.42l-1.84.16c-.24-1.21-1.09-1.85-2.27-1.85-1.49,0-2.49,1.09-2.49,2.83,0,1.85,1.09,2.83,2.5,2.83,1.16,0,2.03-.63,2.26-1.81l1.85.16c-.33,2-1.98,3.22-4.05,3.22-2.5,0-4.34-1.64-4.34-4.39s1.84-4.39,4.33-4.39c2.06,0,3.74,1.23,4.05,3.25Z"/>
            <path class="cls-3" d="M249.81,68.85v1.85h3.22v1.52h-3.22v2.05h3.72v1.56h-5.48v-8.53h5.47v1.55h-3.71Z"/>
            <path class="cls-3" d="M261.6,74.26v1.56h-5.48v-8.53h1.77v6.97h3.72Z"/>
            <path class="cls-3" d="M269.37,74.26v1.56h-5.48v-8.53h1.77v6.97h3.72Z"/>
          </g>
          <g>
            <path class="cls-3" d="M207.73,69.99c.36,0,.68.08.97.25s.52.42.69.74c.17.33.25.72.25,1.18,0,.53-.1,1.02-.29,1.47-.19.46-.47.82-.84,1.1s-.8.42-1.32.42c-.44,0-.8-.1-1.08-.3-.29-.2-.5-.47-.64-.81-.14-.34-.21-.71-.21-1.12,0-.53.1-1.02.3-1.47.2-.45.48-.8.85-1.07s.81-.4,1.32-.4ZM207.58,70.45c-.26,0-.49.09-.68.28s-.33.46-.44.79c-.11.33-.16.7-.17,1.1,0,.21.01.44.04.68s.08.47.16.67c.08.21.18.38.31.51.13.13.3.2.5.21.23,0,.43-.07.59-.21.16-.14.29-.33.4-.55.1-.23.18-.47.23-.73.05-.26.08-.5.08-.72,0-.22,0-.44-.03-.67s-.08-.45-.15-.65c-.08-.2-.18-.37-.32-.5-.14-.13-.31-.19-.53-.19Z"/>
            <path class="cls-3" d="M213.58,67.52c.26,0,.47.04.61.15s.21.25.21.44c0,.06-.01.13-.04.2-.03.08-.08.14-.15.19s-.16.07-.27.07c-.13,0-.24-.05-.32-.15s-.12-.23-.1-.39c-.02,0-.05-.02-.1-.02s-.09-.01-.14,0c-.15,0-.26.07-.36.19-.09.12-.17.27-.22.47-.06.19-.1.41-.14.66-.04.25-.06.51-.08.78h1.36l-.04.48-1.36.02c0,.21-.02.44-.03.68-.02.24-.03.5-.05.76-.02.26-.03.52-.05.77-.02.25-.04.49-.07.7-.04.42-.09.84-.14,1.25-.05.41-.12.79-.21,1.15s-.21.67-.36.94c-.15.27-.35.48-.58.64-.24.15-.53.23-.89.23-.27,0-.48-.05-.62-.15-.14-.1-.21-.25-.21-.43,0-.06.02-.13.05-.2.03-.08.08-.14.15-.2s.16-.08.27-.07c.13,0,.24.06.32.15.08.09.12.21.11.36.06.04.14.06.23.06.19,0,.34-.1.45-.3.11-.2.19-.48.24-.83.06-.35.1-.76.13-1.21.03-.45.07-.93.11-1.43.02-.21.04-.44.05-.68.02-.24.03-.49.05-.75s.04-.51.06-.75c.02-.24.04-.46.06-.67h-.84s.06-.51.06-.51h.85c.07-.49.17-.93.32-1.31s.36-.69.63-.92.63-.34,1.07-.35Z"/>
            <path class="cls-3" d="M219.58,68.67l-.19,1.43h1.46l-.04.47-1.46.02c-.03.26-.06.54-.09.83-.04.29-.07.57-.09.85-.03.28-.05.54-.06.79-.02.25-.02.46-.02.65,0,.11,0,.23.02.36.02.12.06.23.12.31.07.08.17.12.32.12.06,0,.14-.01.24-.04.1-.03.21-.09.33-.18s.24-.25.36-.45l.34.22c-.2.37-.43.65-.69.83s-.55.28-.89.28c-.29,0-.51-.06-.67-.18-.16-.12-.27-.28-.34-.48-.07-.2-.1-.42-.09-.65,0-.24,0-.53.03-.87.02-.34.05-.72.09-1.12.04-.41.08-.82.13-1.24h-.85s.05-.5.05-.5c.46,0,.8-.12,1.03-.37.22-.25.39-.6.5-1.05h.48Z"/>
            <path class="cls-3" d="M225.68,75.16c-.33,0-.55-.09-.67-.26-.12-.17-.18-.42-.18-.75,0-.18.01-.4.04-.66.03-.25.06-.52.09-.79.03-.27.06-.55.09-.82s.04-.52.04-.73c0-.09-.01-.17-.03-.25s-.06-.15-.12-.21c-.06-.06-.14-.08-.25-.08-.16,0-.32.08-.48.23s-.32.37-.47.63c-.15.27-.28.57-.4.91-.12.34-.21.68-.28,1.04s-.1.71-.1,1.05c0,.09,0,.19,0,.3,0,.11,0,.2.01.29h-.96c-.01-.08-.02-.14-.02-.18v-.14c0-.23,0-.53.02-.9.02-.37.04-.77.07-1.21.03-.44.06-.88.1-1.33.04-.45.08-.87.12-1.28s.08-.74.12-1.02c.02-.15.04-.27.05-.37.01-.09.03-.19.05-.3l-.69.04.04-.51c.3,0,.53-.02.71-.04.17-.03.31-.06.41-.1.1-.04.17-.08.22-.13h.38c-.03.17-.06.37-.09.59-.03.22-.07.44-.1.66-.03.21-.06.39-.08.54-.01.13-.03.31-.05.52s-.05.45-.08.71c-.03.25-.06.5-.08.74s-.05.45-.07.62h.02c.2-.53.41-.94.62-1.23s.42-.48.63-.58c.21-.11.42-.16.62-.16.4,0,.69.13.87.39.17.26.26.59.26.97,0,.32-.02.66-.07,1.01-.05.35-.09.68-.13.99s-.06.57-.06.77c0,.12.01.21.04.29.03.07.09.11.18.11.1,0,.21-.07.32-.2.12-.13.22-.37.31-.7l.35.1c-.02.12-.06.26-.13.43-.07.17-.15.32-.26.48-.11.15-.24.28-.4.38s-.34.15-.54.15Z"/>
            <path class="cls-3" d="M230.51,69.99c.26,0,.49.04.71.11.21.08.39.2.52.37s.2.4.2.69c0,.27-.09.5-.27.7-.18.2-.41.35-.69.48-.28.13-.59.23-.92.3-.33.08-.65.13-.95.17,0,.4.04.72.13.97.09.25.21.44.36.55.15.12.34.18.56.18.16,0,.34-.04.52-.11.18-.07.36-.19.53-.35.17-.16.33-.38.47-.66l.41.22c-.18.37-.39.67-.6.9-.22.23-.45.39-.7.49s-.52.15-.81.15c-.62,0-1.09-.19-1.41-.57s-.48-.91-.48-1.58c0-.36.05-.71.15-1.07.1-.36.25-.69.45-.98.2-.29.45-.53.76-.7.31-.17.67-.26,1.08-.26ZM230.38,70.43c-.28,0-.5.09-.68.28-.17.19-.31.43-.4.73-.09.3-.15.6-.18.92.35-.05.67-.14.95-.25.28-.12.51-.26.68-.44.17-.17.25-.37.24-.59,0-.2-.05-.36-.16-.47s-.26-.18-.45-.18Z"/>
          </g>
          <g>
            <path class="cls-3" d="M6.91,75.8l-.61-1.26h-3.67l-.61,1.26H0l4.46-8.81,4.46,8.81h-2.01ZM5.58,73.08l-1.12-2.3-1.12,2.3h2.24Z"/>
            <path class="cls-3" d="M16.46,69.69l-1.83.09c-.01-.73-.52-1.2-1.34-1.2s-1.28.44-1.28,1.04c0,.67.5.85,1.69,1.13,1.77.45,2.93.99,2.93,2.53,0,1.84-1.44,2.65-3.18,2.65-2,0-3.44-.98-3.47-2.77l1.81-.09c.04.79.72,1.32,1.65,1.32.8,0,1.36-.3,1.36-1,0-.66-.62-.9-1.78-1.19-1.56-.39-2.85-.83-2.85-2.51,0-1.42,1-2.65,3.07-2.65,1.87,0,3.15.99,3.2,2.66Z"/>
            <path class="cls-3" d="M26.79,70.32l-1.86.16c-.24-1.22-1.11-1.87-2.3-1.87-1.51,0-2.52,1.11-2.52,2.86,0,1.87,1.11,2.86,2.53,2.86,1.18,0,2.06-.64,2.29-1.84l1.87.16c-.33,2.02-2.01,3.26-4.1,3.26-2.53,0-4.4-1.66-4.4-4.45s1.86-4.45,4.39-4.45c2.09,0,3.79,1.25,4.1,3.29Z"/>
            <path class="cls-3" d="M32.44,67.16c1.56,0,2.69.77,2.69,2.4,0,.82-.36,1.37-.84,1.7.66.25,1.2.94,1.2,2.02,0,1.65-1.16,2.52-2.79,2.52h-3.87v-8.64h3.62ZM30.6,70.62h1.72c.6,0,.99-.28.99-.94s-.44-.96-1.09-.96h-1.63v1.89ZM30.6,74.22h1.88c.69,0,1.18-.3,1.18-1.03s-.5-1.05-1.16-1.05h-1.91v2.08Z"/>
            <path class="cls-3" d="M43.36,71.57c0,.82-.66,1.47-1.46,1.47s-1.47-.65-1.47-1.47.65-1.46,1.47-1.46,1.46.65,1.46,1.46Z"/>
          </g>
        </g>
        <g>
          <g>
            <path class="cls-3" d="M69.26,71.48c0,2.68-1.88,4.39-4.42,4.39s-4.44-1.71-4.44-4.39,1.87-4.39,4.44-4.39,4.42,1.71,4.42,4.39ZM62.19,71.48c0,1.76,1.08,2.83,2.65,2.83s2.62-1.07,2.62-2.83-1.08-2.83-2.62-2.83-2.65,1.06-2.65,2.83Z"/>
            <path class="cls-3" d="M77.33,74.18v1.56h-5.48v-8.53h1.77v6.97h3.72Z"/>
            <path class="cls-3" d="M81.38,68.77v1.85h3.22v1.52h-3.22v2.05h3.72v1.56h-5.48v-8.53h5.47v1.55h-3.71Z"/>
            <path class="cls-3" d="M95.57,70.34l-1.84.16c-.24-1.21-1.09-1.85-2.27-1.85-1.49,0-2.49,1.09-2.49,2.83,0,1.85,1.09,2.83,2.5,2.83,1.16,0,2.03-.63,2.26-1.81l1.85.16c-.33,2-1.98,3.22-4.05,3.22-2.5,0-4.34-1.64-4.34-4.39s1.84-4.39,4.33-4.39c2.06,0,3.74,1.23,4.05,3.25Z"/>
            <path class="cls-3" d="M105.26,72.28c0,2.28-1.39,3.59-3.63,3.59s-3.64-1.31-3.64-3.59v-5.06h1.76v5.04c0,1.33.65,2.05,1.88,2.05s1.87-.72,1.87-2.05v-5.04h1.76v5.06Z"/>
            <path class="cls-3" d="M113.61,74.18v1.56h-5.48v-8.53h1.77v6.97h3.72Z"/>
            <path class="cls-3" d="M122.39,75.75l-.6-1.24h-3.63l-.6,1.24h-1.98l4.4-8.7,4.4,8.7h-1.98ZM121.07,73.07l-1.11-2.27-1.11,2.27h2.21Z"/>
            <path class="cls-3" d="M129.75,72.68h-1.43v3.07h-1.77v-8.53h3.65c1.62,0,2.75.98,2.75,2.74,0,1.19-.52,2.03-1.37,2.44l1.81,3.35h-1.98l-1.66-3.07ZM129.99,71.12c.68,0,1.17-.41,1.17-1.16s-.49-1.19-1.17-1.19h-1.68v2.35h1.68Z"/>
            <path class="cls-3" d="M143.04,67.22c1.54,0,2.66.76,2.66,2.37,0,.81-.35,1.36-.83,1.68.65.25,1.19.92,1.19,2,0,1.63-1.14,2.49-2.76,2.49h-3.82v-8.53h3.57ZM141.23,70.64h1.7c.59,0,.98-.27.98-.92s-.43-.95-1.07-.95h-1.61v1.87ZM141.23,74.18h1.86c.68,0,1.16-.3,1.16-1.01s-.49-1.04-1.14-1.04h-1.88v2.05Z"/>
            <path class="cls-3" d="M148.7,75.75v-8.53h1.77v8.53h-1.77Z"/>
            <path class="cls-3" d="M161.9,71.48c0,2.68-1.88,4.39-4.42,4.39s-4.44-1.71-4.44-4.39,1.87-4.39,4.44-4.39,4.42,1.71,4.42,4.39ZM154.83,71.48c0,1.76,1.08,2.83,2.65,2.83s2.62-1.07,2.62-2.83-1.08-2.83-2.62-2.83-2.65,1.06-2.65,2.83Z"/>
            <path class="cls-3" d="M169.97,74.18v1.56h-5.48v-8.53h1.77v6.97h3.72Z"/>
            <path class="cls-3" d="M180.59,71.48c0,2.68-1.88,4.39-4.42,4.39s-4.44-1.71-4.44-4.39,1.87-4.39,4.44-4.39,4.42,1.71,4.42,4.39ZM173.52,71.48c0,1.76,1.08,2.83,2.65,2.83s2.62-1.07,2.62-2.83-1.08-2.83-2.62-2.83-2.65,1.06-2.65,2.83Z"/>
            <path class="cls-3" d="M191.2,71.66c0,2.52-1.56,4.21-4.06,4.21s-4.33-1.64-4.33-4.39,1.84-4.39,4.32-4.39c1.97,0,3.53,1.06,3.99,2.93l-1.82.31c-.24-1.04-1.01-1.68-2.18-1.68-1.53,0-2.52.94-2.52,2.83s1,2.83,2.52,2.83c1.05,0,1.89-.49,2.15-1.66h-2.14v-1.55h4.07v.57Z"/>
            <path class="cls-3" d="M197.48,75.75h-1.76v-3.28l-3.24-5.25h2.04l2.06,3.5,2.06-3.5h2.05l-3.23,5.25v3.28Z"/>
          </g>
          <path class="cls-3" d="M48.65,67.27h2.21l2.33,5.69h.1l2.33-5.69h2.21v8.47h-1.74v-5.51h-.07l-2.19,5.47h-1.18l-2.19-5.49h-.07v5.53h-1.74v-8.47Z"/>
        </g>
      </g>
    </g>
  </g>
</svg>